# WaveFront *.obj file (generated by Autodesk ATF)

mtllib MoveRid.mtl

g MoveRid

v -247.000005 174.000004 0.000001
v -247.075967 174.868245 0.000000
v -247.301542 175.710105 0.000000
v -247.669878 176.500004 0.000000
v -248.169783 177.213942 0.000000
v -248.786067 177.830226 0.000000
v -249.500005 178.330131 0.000000
v -250.289905 178.698467 0.000000
v -251.131764 178.924043 0.000000
v -252.000005 179.000004 0.000000
v -252.000005 179.000004 2.000000
v -251.131764 178.924043 2.000000
v -250.289905 178.698467 2.000000
v -249.500005 178.330131 2.000000
v -248.786067 177.830226 2.000000
v -248.169783 177.213942 2.000000
v -247.669878 176.500004 2.000000
v -247.301542 175.710105 2.000000
v -247.075967 174.868245 2.000000
v -247.000005 174.000004 2.000001
v -247.000005 159.000001 2.000001
v -247.000005 159.000001 0.000001
v -297.000005 179.000004 2.000000
v -297.868246 178.924043 2.000000
v -298.710106 178.698467 2.000000
v -299.500005 178.330131 2.000000
v -300.213943 177.830226 2.000000
v -300.830228 177.213942 2.000000
v -301.330132 176.500004 2.000000
v -301.698468 175.710105 2.000000
v -301.924044 174.868245 2.000000
v -302.000005 174.000004 2.000001
v -302.000005 159.000001 2.000001
v -301.924044 158.131760 2.000000
v -301.698468 157.289900 2.000000
v -301.330132 156.500001 2.000000
v -300.830228 155.786063 2.000000
v -300.213943 155.169779 2.000000
v -299.500005 154.669874 2.000000
v -298.710106 154.301538 2.000000
v -297.868246 154.075962 2.000000
v -297.000005 154.000001 2.000001
v -287.000005 154.000001 2.000001
v -287.000005 84.000003 2.000000
v -286.924044 83.131762 2.000000
v -286.698468 82.289902 2.000000
v -286.330132 81.500003 2.000000
v -285.830228 80.786065 2.000000
v -285.213943 80.169780 2.000000
v -284.500005 79.669876 2.000000
v -283.710106 79.301540 2.000000
v -282.868246 79.075964 2.000000
v -282.000005 79.000003 2.000000
v -220.376247 79.000003 2.000000
v -219.926585 82.008960 2.000000
v -219.636703 85.037490 2.000000
v -219.507412 88.077113 2.000000
v -219.539075 91.119319 2.000000
v -219.731603 94.155592 2.000000
v -220.084457 97.177432 2.000000
v -220.596649 100.176379 2.000000
v -221.266745 103.144037 2.000000
v -222.092869 106.072098 2.000000
v -223.072709 108.952365 2.000000
v -224.203521 111.776774 2.000000
v -225.482140 114.537418 2.000000
v -226.904986 117.226569 2.000000
v -228.468075 119.836698 2.000000
v -230.167032 122.360498 2.000000
v -231.997101 124.790904 2.000000
v -233.953157 127.121111 2.000000
v -236.029726 129.344596 2.000000
v -238.220993 131.455134 2.000000
v -240.520823 133.446817 2.000000
v -242.922780 135.314069 2.000000
v -245.420137 137.051662 2.000000
v -248.005904 138.654731 2.000000
v -250.672841 140.118790 2.000000
v -253.413483 141.439739 2.000000
v -256.220156 142.613880 2.000000
v -259.085003 143.637926 2.000000
v -262.000005 144.509011 2.000000
v -262.000005 154.000001 2.000001
v -252.000005 154.000001 2.000001
v -251.131764 154.075962 2.000000
v -250.289905 154.301538 2.000000
v -249.500005 154.669874 2.000000
v -248.786067 155.169779 2.000000
v -248.169783 155.786063 2.000000
v -247.669878 156.500001 2.000000
v -247.301542 157.289900 2.000000
v -247.075967 158.131760 2.000000
v -297.000005 179.000004 0.000000
v -297.868246 178.924043 0.000000
v -298.710106 178.698467 0.000000
v -299.500005 178.330131 0.000000
v -300.213943 177.830226 0.000000
v -300.830228 177.213942 0.000000
v -301.330132 176.500004 0.000000
v -301.698468 175.710105 0.000000
v -301.924044 174.868245 0.000000
v -302.000005 174.000004 0.000001
v -302.000005 159.000001 0.000001
v -301.924044 158.131760 0.000000
v -301.698468 157.289900 0.000000
v -301.330132 156.500001 0.000000
v -300.830228 155.786063 0.000000
v -300.213943 155.169779 0.000000
v -299.500005 154.669874 0.000000
v -298.710106 154.301538 0.000000
v -297.868246 154.075962 0.000000
v -297.000005 154.000001 0.000001
v -252.000005 154.000001 0.000001
v -251.131764 154.075962 0.000000
v -250.289905 154.301538 0.000000
v -249.500005 154.669874 0.000000
v -248.786067 155.169779 0.000000
v -248.169783 155.786063 0.000000
v -247.669878 156.500001 0.000000
v -247.301542 157.289900 0.000000
v -247.075967 158.131760 0.000000
v -287.000005 154.000001 0.000000
v -262.000005 154.000001 0.000000
v -287.000005 84.000003 0.000000
v -286.924044 83.131762 0.000000
v -286.698468 82.289902 0.000000
v -286.330132 81.500003 0.000000
v -285.830228 80.786065 0.000000
v -285.213943 80.169780 0.000000
v -284.500005 79.669876 0.000000
v -283.710106 79.301540 0.000000
v -282.868246 79.075964 0.000000
v -282.000005 79.000003 0.000000
v -262.000005 144.509011 0.000000
v -259.085003 143.637926 0.000000
v -256.220156 142.613880 0.000000
v -253.413483 141.439739 0.000000
v -250.672841 140.118790 0.000000
v -248.005904 138.654731 0.000000
v -245.420137 137.051662 0.000000
v -242.922780 135.314069 0.000000
v -240.520823 133.446817 0.000000
v -238.220993 131.455134 0.000000
v -236.029726 129.344596 0.000000
v -233.953157 127.121111 0.000000
v -231.997101 124.790904 0.000000
v -230.167032 122.360498 0.000000
v -228.468075 119.836698 0.000000
v -226.904986 117.226569 0.000000
v -225.482140 114.537418 0.000000
v -224.203521 111.776774 0.000000
v -223.072709 108.952365 0.000000
v -222.092869 106.072098 0.000000
v -221.266745 103.144037 0.000000
v -220.596649 100.176379 0.000000
v -220.084457 97.177432 0.000000
v -219.731603 94.155592 0.000000
v -219.539075 91.119319 0.000000
v -219.507412 88.077113 0.000000
v -219.636703 85.037490 0.000000
v -219.926585 82.008960 0.000000
v -220.376247 79.000003 0.000000
vt 0.150000 0.392699 0.000000
vt -0.050000 0.392699 0.000000
vt 0.150000 0.305433 0.000000
vt -0.050000 0.305433 0.000000
vt 0.150000 0.218166 0.000000
vt -0.050000 0.218166 0.000000
vt 0.150000 0.130900 0.000000
vt -0.050000 0.130900 0.000000
vt 0.150000 0.043633 0.000000
vt -0.050000 0.043633 0.000000
vt 0.150000 -0.043633 0.000000
vt -0.050000 -0.043633 0.000000
vt 0.150000 -0.130900 0.000000
vt -0.050000 -0.130900 0.000000
vt 0.150000 -0.218166 0.000000
vt -0.050000 -0.218166 0.000000
vt 0.150000 -0.305433 0.000000
vt -0.050000 -0.305433 0.000000
vt 0.150000 -0.392699 0.000000
vt -0.050000 -0.392699 0.000000
vt 0.100000 1.000000 0.000000
vt -0.100000 1.000000 0.000000
vt 0.100000 -0.500000 0.000000
vt -0.100000 -0.500000 0.000000
vt 0.617404 4.836824 0.000000
vt 0.594846 4.921010 0.000000
vt 0.625000 4.750000 0.000000
vt 0.558013 5.000000 0.000000
vt 0.508022 5.071394 0.000000
vt 0.446394 5.133022 0.000000
vt 0.375000 5.183013 0.000000
vt 0.296010 5.219846 0.000000
vt 0.211824 5.242404 0.000000
vt 0.125000 5.250000 0.000000
vt 0.625000 3.250000 0.000000
vt 0.508022 2.928606 0.000000
vt 0.558013 3.000000 0.000000
vt 0.446394 2.866978 0.000000
vt -4.375000 5.250000 0.000000
vt -4.758022 2.928606 0.000000
vt -4.875000 3.250000 0.000000
vt -4.808013 3.000000 0.000000
vt -4.844846 3.078990 0.000000
vt -4.867404 3.163176 0.000000
vt -4.875000 4.750000 0.000000
vt -4.461824 5.242404 0.000000
vt -4.546010 5.219846 0.000000
vt -4.625000 5.183013 0.000000
vt -4.696394 5.133022 0.000000
vt -4.758022 5.071394 0.000000
vt -4.808013 5.000000 0.000000
vt -4.844846 4.921010 0.000000
vt -4.867404 4.836824 0.000000
vt -4.696394 2.866978 0.000000
vt 0.375000 2.816987 0.000000
vt -4.625000 2.816987 0.000000
vt 0.296010 2.780153 0.000000
vt -4.546010 2.780153 0.000000
vt 0.211824 2.757596 0.000000
vt -4.461824 2.757596 0.000000
vt 0.125000 2.750000 0.000000
vt -0.875000 2.750000 0.000000
vt -3.375000 2.750000 0.000000
vt -0.875000 1.800901 0.000000
vt -3.375000 -4.250000 0.000000
vt -0.583500 1.713792 0.000000
vt -0.297015 1.611388 0.000000
vt -2.875000 -4.750000 0.000000
vt -0.016348 1.493974 0.000000
vt 0.257716 1.361879 0.000000
vt 0.524410 1.215473 0.000000
vt 0.782987 1.055166 0.000000
vt 1.032723 0.881407 0.000000
vt 1.272918 0.694681 0.000000
vt 1.502901 0.495513 0.000000
vt 1.722028 0.284459 0.000000
vt 1.929685 0.062111 0.000000
vt 2.125290 -0.170910 0.000000
vt 2.308297 -0.413951 0.000000
vt 2.478193 -0.666331 0.000000
vt 2.634502 -0.927343 0.000000
vt 2.776787 -1.196259 0.000000
vt 2.904648 -1.472323 0.000000
vt 3.017730 -1.754764 0.000000
vt 3.115714 -2.042791 0.000000
vt 3.198326 -2.335597 0.000000
vt 3.265336 -2.632362 0.000000
vt 3.316555 -2.932257 0.000000
vt 3.351840 -3.234441 0.000000
vt 3.371093 -3.538068 0.000000
vt 3.374259 -3.842289 0.000000
vt 3.361330 -4.146251 0.000000
vt 3.332342 -4.449104 0.000000
vt 3.287376 -4.750000 0.000000
vt -4.375000 2.750000 0.000000
vt -3.367404 -4.336824 0.000000
vt -3.344846 -4.421010 0.000000
vt -3.308013 -4.500000 0.000000
vt -3.258022 -4.571394 0.000000
vt -3.196394 -4.633022 0.000000
vt -3.125000 -4.683013 0.000000
vt -3.046010 -4.719846 0.000000
vt -2.961824 -4.742404 0.000000
vt 0.594846 3.078990 0.000000
vt 0.617404 3.163176 0.000000
vt 0.150000 0.392699 0.000000
vt -0.050000 0.392699 0.000000
vt 0.150000 0.305433 0.000000
vt -0.050000 0.305433 0.000000
vt 0.150000 0.218166 0.000000
vt -0.050000 0.218166 0.000000
vt 0.150000 0.130900 0.000000
vt -0.050000 0.130900 0.000000
vt 0.150000 0.043633 0.000000
vt -0.050000 0.043633 0.000000
vt 0.150000 -0.043633 0.000000
vt -0.050000 -0.043633 0.000000
vt 0.150000 -0.130900 0.000000
vt -0.050000 -0.130900 0.000000
vt 0.150000 -0.218166 0.000000
vt -0.050000 -0.218166 0.000000
vt 0.150000 -0.305433 0.000000
vt -0.050000 -0.305433 0.000000
vt -0.050000 -0.392699 0.000000
vt 0.150000 -0.392699 0.000000
vt 0.100000 1.000000 0.000000
vt -0.100000 1.000000 0.000000
vt 0.100000 -0.500000 0.000000
vt -0.100000 -0.500000 0.000000
vt -1.500000 0.000000 0.000000
vt 3.000000 0.000000 0.000000
vt -1.500000 0.200000 0.000000
vt 3.000000 0.200000 0.000000
vt -0.150000 0.392699 0.000000
vt -0.150000 0.305433 0.000000
vt 0.050000 0.392699 0.000000
vt 0.050000 0.305433 0.000000
vt 0.050000 0.218166 0.000000
vt -0.150000 0.218166 0.000000
vt 0.050000 0.130900 0.000000
vt -0.150000 0.130900 0.000000
vt 0.050000 0.043633 0.000000
vt -0.150000 0.043633 0.000000
vt 0.050000 -0.043633 0.000000
vt -0.150000 -0.043633 0.000000
vt 0.050000 -0.130900 0.000000
vt -0.150000 -0.130900 0.000000
vt 0.050000 -0.218166 0.000000
vt -0.150000 -0.218166 0.000000
vt 0.050000 -0.305433 0.000000
vt -0.150000 -0.305433 0.000000
vt 0.050000 -0.392699 0.000000
vt -0.150000 -0.392699 0.000000
vt 0.150000 0.392699 0.000000
vt -0.050000 0.392699 0.000000
vt 0.150000 0.305433 0.000000
vt -0.050000 0.305433 0.000000
vt 0.150000 0.218166 0.000000
vt -0.050000 0.218166 0.000000
vt 0.150000 0.130900 0.000000
vt -0.050000 0.130900 0.000000
vt 0.150000 0.043633 0.000000
vt -0.050000 0.043633 0.000000
vt 0.150000 -0.043633 0.000000
vt -0.050000 -0.043633 0.000000
vt 0.150000 -0.130900 0.000000
vt -0.050000 -0.130900 0.000000
vt 0.150000 -0.218166 0.000000
vt -0.050000 -0.218166 0.000000
vt 0.150000 -0.305433 0.000000
vt -0.050000 -0.305433 0.000000
vt -0.050000 -0.392699 0.000000
vt 0.150000 -0.392699 0.000000
vt 0.200000 1.000000 0.000000
vt 0.000000 1.000000 0.000000
vt 0.200000 0.000000 0.000000
vt -0.000000 0.000000 0.000000
vt 0.200000 -3.500000 0.000000
vt 0.200000 -2.500000 0.000000
vt 0.000000 -3.500000 0.000000
vt -0.000000 -2.500000 0.000000
vt 1.500000 0.200000 0.000000
vt 1.500000 0.000000 0.000000
vt 8.500000 0.200000 0.000000
vt 8.500000 0.000000 0.000000
vt -0.000000 0.392699 0.000000
vt -0.200000 0.392699 0.000000
vt -0.000000 0.305433 0.000000
vt -0.200000 0.305433 0.000000
vt -0.000000 0.218166 0.000000
vt -0.200000 0.218166 0.000000
vt -0.000000 0.130900 0.000000
vt -0.200000 0.130900 0.000000
vt -0.000000 0.043633 0.000000
vt -0.200000 0.043633 0.000000
vt -0.000000 -0.043633 0.000000
vt -0.200000 -0.043633 0.000000
vt -0.000000 -0.130900 0.000000
vt -0.200000 -0.130900 0.000000
vt -0.000000 -0.218166 0.000000
vt -0.200000 -0.218166 0.000000
vt -0.000000 -0.305433 0.000000
vt -0.200000 -0.305433 0.000000
vt -0.000000 -0.392699 0.000000
vt -0.200000 -0.392699 0.000000
vt -0.211824 5.242404 0.000000
vt -0.625000 4.750000 0.000000
vt -0.125000 5.250000 0.000000
vt -0.625000 3.250000 0.000000
vt -0.508022 2.928606 0.000000
vt -0.558013 3.000000 0.000000
vt -0.594846 3.078990 0.000000
vt -0.617404 3.163176 0.000000
vt -0.296010 5.219846 0.000000
vt -0.375000 5.183013 0.000000
vt -0.446394 5.133022 0.000000
vt -0.508022 5.071394 0.000000
vt -0.558013 5.000000 0.000000
vt -0.594846 4.921010 0.000000
vt -0.617404 4.836824 0.000000
vt 4.696394 2.866978 0.000000
vt -0.446394 2.866978 0.000000
vt 4.625000 2.816987 0.000000
vt -0.375000 2.816987 0.000000
vt 4.546010 2.780153 0.000000
vt -0.296010 2.780153 0.000000
vt 4.461824 2.757596 0.000000
vt -0.211824 2.757596 0.000000
vt 4.375000 2.750000 0.000000
vt 3.375000 2.750000 0.000000
vt 0.875000 2.750000 0.000000
vt 0.875000 1.800901 0.000000
vt -0.125000 2.750000 0.000000
vt 3.375000 -4.250000 0.000000
vt 0.583500 1.713792 0.000000
vt 0.297015 1.611388 0.000000
vt 2.875000 -4.750000 0.000000
vt 0.016348 1.493974 0.000000
vt -0.257716 1.361879 0.000000
vt -0.524410 1.215473 0.000000
vt -0.782987 1.055166 0.000000
vt -1.032723 0.881407 0.000000
vt -1.272918 0.694681 0.000000
vt -1.502901 0.495513 0.000000
vt -1.722028 0.284459 0.000000
vt -1.929685 0.062111 0.000000
vt -2.125290 -0.170910 0.000000
vt -2.308297 -0.413951 0.000000
vt -2.478193 -0.666331 0.000000
vt -2.634502 -0.927343 0.000000
vt -2.776787 -1.196259 0.000000
vt -2.904648 -1.472323 0.000000
vt -3.017730 -1.754764 0.000000
vt -3.115714 -2.042791 0.000000
vt -3.198326 -2.335597 0.000000
vt -3.265336 -2.632362 0.000000
vt -3.316555 -2.932257 0.000000
vt -3.351840 -3.234441 0.000000
vt -3.371093 -3.538068 0.000000
vt -3.374259 -3.842289 0.000000
vt -3.361330 -4.146251 0.000000
vt -3.332342 -4.449104 0.000000
vt -3.287376 -4.750000 0.000000
vt 2.961824 -4.742404 0.000000
vt 3.046010 -4.719846 0.000000
vt 3.125000 -4.683013 0.000000
vt 3.196394 -4.633022 0.000000
vt 3.258022 -4.571394 0.000000
vt 3.308013 -4.500000 0.000000
vt 3.344846 -4.421010 0.000000
vt 3.367404 -4.336824 0.000000
vt 4.758022 2.928606 0.000000
vt 4.875000 3.250000 0.000000
vt 4.375000 5.250000 0.000000
vt 4.808013 3.000000 0.000000
vt 4.844846 3.078990 0.000000
vt 4.867404 3.163176 0.000000
vt 4.875000 4.750000 0.000000
vt 4.461824 5.242404 0.000000
vt 4.546010 5.219846 0.000000
vt 4.625000 5.183013 0.000000
vt 4.696394 5.133022 0.000000
vt 4.758022 5.071394 0.000000
vt 4.808013 5.000000 0.000000
vt 4.844846 4.921010 0.000000
vt 4.867404 4.836824 0.000000
vt 0.949099 0.200000 0.000000
vt 0.000000 0.200000 0.000000
vt 0.949099 0.000000 0.000000
vt 0.000000 0.000000 0.000000
vt -0.200000 -1.005111 0.000000
vt -0.000000 -1.005111 0.000000
vt -0.200000 -0.700838 0.000000
vt -0.000000 -0.700838 0.000000
vt -0.200000 -0.396566 0.000000
vt -0.000000 -0.396566 0.000000
vt -0.200000 -0.092293 0.000000
vt -0.000000 -0.092293 0.000000
vt -0.200000 0.211980 0.000000
vt -0.000000 0.211980 0.000000
vt -0.200000 0.516252 0.000000
vt -0.000000 0.516252 0.000000
vt -0.200000 0.820525 0.000000
vt -0.000000 0.820525 0.000000
vt -0.200000 1.124797 0.000000
vt -0.000000 1.124797 0.000000
vt -0.200000 1.429070 0.000000
vt -0.000000 1.429070 0.000000
vt -0.200000 1.733343 0.000000
vt -0.000000 1.733343 0.000000
vt -0.200000 2.037615 0.000000
vt -0.000000 2.037615 0.000000
vt -0.200000 2.341888 0.000000
vt -0.000000 2.341888 0.000000
vt -0.200000 2.646161 0.000000
vt -0.000000 2.646161 0.000000
vt -0.200000 2.950433 0.000000
vt -0.000000 2.950433 0.000000
vt -0.200000 3.254706 0.000000
vt -0.000000 3.254706 0.000000
vt -0.200000 3.558978 0.000000
vt -0.000000 3.558978 0.000000
vt -0.200000 3.863251 0.000000
vt -0.000000 3.863251 0.000000
vt -0.200000 4.167524 0.000000
vt -0.000000 4.167524 0.000000
vt -0.200000 4.471796 0.000000
vt -0.000000 4.471796 0.000000
vt -0.200000 4.776069 0.000000
vt -0.000000 4.776069 0.000000
vt -0.200000 5.080342 0.000000
vt -0.000000 5.080342 0.000000
vt -0.200000 5.384614 0.000000
vt -0.000000 5.384614 0.000000
vt -0.200000 5.688887 0.000000
vt -0.000000 5.688887 0.000000
vt -0.200000 5.993159 0.000000
vt -0.000000 5.993159 0.000000
vt -0.200000 6.297432 0.000000
vt -0.000000 6.297432 0.000000
vt -0.200000 6.601705 0.000000
vt -0.000000 6.601705 0.000000
vt -0.200000 6.905977 0.000000
vt -0.000000 6.905977 0.000000
vt -0.200000 7.210250 0.000000
vt -0.000000 7.210250 0.000000
vt -0.200000 7.514522 0.000000
vt -0.000000 7.514522 0.000000
vt 0.500000 0.000000 0.000000
vt 6.662376 0.000000 0.000000
vt 0.500000 0.200000 0.000000
vt 6.662376 0.200000 0.000000
vn 0.100000 0.000000 0.000000
vn 0.100000 0.000000 0.000000
vn 0.098481 0.017365 0.000000
vn 0.098481 0.017365 0.000000
vn 0.093969 0.034202 0.000000
vn 0.093969 0.034202 0.000000
vn 0.086603 0.050000 0.000000
vn 0.086603 0.050000 0.000000
vn 0.076604 0.064279 0.000000
vn 0.076604 0.064279 0.000000
vn 0.064279 0.076604 0.000000
vn 0.064279 0.076604 0.000000
vn 0.050000 0.086603 0.000000
vn 0.050000 0.086603 0.000000
vn 0.034202 0.093969 0.000000
vn 0.034202 0.093969 0.000000
vn 0.017365 0.098481 0.000000
vn 0.017365 0.098481 0.000000
vn -0.000000 0.100000 -0.000000
vn -0.000000 0.100000 -0.000000
vn 0.100000 0.000000 0.000000
vn 0.100000 0.000000 0.000000
vn 0.000000 0.000000 0.100000
vn 0.000000 0.000000 0.100000
vn 0.000000 0.000000 0.100000
vn 0.000000 0.000000 0.100000
vn 0.000000 0.000000 0.100000
vn 0.000000 0.000000 0.100000
vn 0.000000 0.000000 0.100000
vn 0.000000 0.000000 0.100000
vn 0.000000 0.000000 0.100000
vn 0.000000 0.000000 0.100000
vn 0.000000 0.000000 0.100000
vn 0.000000 0.000000 0.100000
vn 0.000000 0.000000 0.100000
vn 0.000000 0.000000 0.100000
vn 0.000000 0.000000 0.100000
vn 0.000000 0.000000 0.100000
vn 0.000000 0.000000 0.100000
vn 0.000000 0.000000 0.100000
vn 0.000000 0.000000 0.100000
vn 0.000000 0.000000 0.100000
vn 0.000000 0.000000 0.100000
vn 0.000000 0.000000 0.100000
vn 0.000000 0.000000 0.100000
vn 0.000000 0.000000 0.100000
vn 0.000000 0.000000 0.100000
vn 0.000000 0.000000 0.100000
vn 0.000000 0.000000 0.100000
vn 0.000000 0.000000 0.100000
vn 0.000000 0.000000 0.100000
vn 0.000000 0.000000 0.100000
vn 0.000000 0.000000 0.100000
vn 0.000000 0.000000 0.100000
vn 0.000000 0.000000 0.100000
vn 0.000000 0.000000 0.100000
vn 0.000000 0.000000 0.100000
vn 0.000000 0.000000 0.100000
vn 0.000000 0.000000 0.100000
vn 0.000000 0.000000 0.100000
vn 0.000000 0.000000 0.100000
vn 0.000000 0.000000 0.100000
vn 0.000000 0.000000 0.100000
vn 0.000000 0.000000 0.100000
vn 0.000000 0.000000 0.100000
vn 0.000000 0.000000 0.100000
vn 0.000000 0.000000 0.100000
vn 0.000000 0.000000 0.100000
vn 0.000000 0.000000 0.100000
vn 0.000000 0.000000 0.100000
vn 0.000000 0.000000 0.100000
vn 0.000000 0.000000 0.100000
vn 0.000000 0.000000 0.100000
vn 0.000000 0.000000 0.100000
vn 0.000000 0.000000 0.100000
vn 0.000000 0.000000 0.100000
vn 0.000000 0.000000 0.100000
vn 0.000000 0.000000 0.100000
vn 0.000000 0.000000 0.100000
vn 0.000000 0.000000 0.100000
vn 0.000000 0.000000 0.100000
vn 0.000000 0.000000 0.100000
vn 0.000000 0.000000 0.100000
vn 0.000000 0.000000 0.100000
vn 0.000000 0.000000 0.100000
vn 0.000000 0.000000 0.100000
vn 0.000000 0.000000 0.100000
vn 0.000000 0.000000 0.100000
vn 0.000000 0.000000 0.100000
vn 0.000000 0.000000 0.100000
vn 0.000000 0.000000 0.100000
vn 0.000000 0.000000 0.100000
vn 0.000000 0.000000 0.100000
vn 0.000000 0.000000 0.100000
vn 0.000000 0.000000 0.100000
vn 0.000000 0.000000 0.100000
vn 0.000000 0.000000 0.100000
vn 0.000000 0.000000 0.100000
vn 0.000000 0.000000 0.100000
vn 0.000000 0.000000 0.100000
vn 0.000000 0.000000 0.100000
vn 0.000000 0.000000 0.100000
vn 0.000000 0.000000 0.100000
vn -0.000000 0.100000 -0.000000
vn -0.000000 0.100000 -0.000000
vn -0.017365 0.098481 -0.000000
vn -0.017365 0.098481 -0.000000
vn -0.034202 0.093969 -0.000000
vn -0.034202 0.093969 -0.000000
vn -0.050000 0.086603 -0.000000
vn -0.050000 0.086603 -0.000000
vn -0.064279 0.076604 -0.000000
vn -0.064279 0.076604 -0.000000
vn -0.076604 0.064279 -0.000000
vn -0.076604 0.064279 -0.000000
vn -0.086603 0.050000 -0.000000
vn -0.086603 0.050000 -0.000000
vn -0.093969 0.034202 -0.000000
vn -0.093969 0.034202 -0.000000
vn -0.098481 0.017365 -0.000000
vn -0.098481 0.017365 -0.000000
vn -0.100000 0.000000 -0.000000
vn -0.100000 0.000000 -0.000000
vn -0.100000 0.000000 0.000000
vn -0.100000 0.000000 0.000000
vn 0.000000 -0.100000 0.000000
vn -0.017365 -0.098481 0.000000
vn 0.000000 -0.100000 0.000000
vn -0.017365 -0.098481 0.000000
vn -0.034202 -0.093969 0.000000
vn -0.034202 -0.093969 0.000000
vn -0.050000 -0.086603 0.000000
vn -0.050000 -0.086603 0.000000
vn -0.064279 -0.076604 0.000000
vn -0.064279 -0.076604 0.000000
vn -0.076604 -0.064279 0.000000
vn -0.076604 -0.064279 0.000000
vn -0.086603 -0.050000 0.000000
vn -0.086603 -0.050000 0.000000
vn -0.093969 -0.034202 0.000000
vn -0.093969 -0.034202 0.000000
vn -0.098481 -0.017365 0.000000
vn -0.098481 -0.017365 0.000000
vn 0.000000 -0.100000 0.000000
vn 0.000000 -0.100000 0.000000
vn 0.017365 -0.098481 0.000000
vn 0.017365 -0.098481 0.000000
vn 0.034202 -0.093969 0.000000
vn 0.034202 -0.093969 0.000000
vn 0.050000 -0.086603 0.000000
vn 0.050000 -0.086603 0.000000
vn 0.064279 -0.076604 0.000000
vn 0.064279 -0.076604 0.000000
vn 0.076604 -0.064279 0.000000
vn 0.076604 -0.064279 0.000000
vn 0.086603 -0.050000 0.000000
vn 0.086603 -0.050000 0.000000
vn 0.093969 -0.034202 0.000000
vn 0.093969 -0.034202 0.000000
vn 0.098481 -0.017365 0.000000
vn 0.098481 -0.017365 0.000000
vn 0.000000 -0.100000 0.000000
vn 0.000000 -0.100000 0.000000
vn 0.000000 -0.100000 0.000000
vn 0.000000 -0.100000 0.000000
vn -0.100000 0.000000 0.000000
vn -0.100000 0.000000 0.000000
vn -0.100000 0.000000 0.000000
vn -0.100000 0.000000 0.000000
vn 0.000000 -0.100000 0.000000
vn 0.000000 -0.100000 0.000000
vn -0.017365 -0.098481 0.000000
vn -0.017365 -0.098481 0.000000
vn -0.034202 -0.093969 0.000000
vn -0.034202 -0.093969 0.000000
vn -0.050000 -0.086603 0.000000
vn -0.050000 -0.086603 0.000000
vn -0.064279 -0.076604 0.000000
vn -0.064279 -0.076604 0.000000
vn -0.076604 -0.064279 0.000000
vn -0.076604 -0.064279 0.000000
vn -0.086603 -0.050000 0.000000
vn -0.086603 -0.050000 0.000000
vn -0.093969 -0.034202 0.000000
vn -0.093969 -0.034202 0.000000
vn -0.098481 -0.017365 0.000000
vn -0.098481 -0.017365 0.000000
vn 0.000000 0.000000 -0.100000
vn 0.000000 0.000000 -0.100000
vn 0.000000 0.000000 -0.100000
vn 0.000000 0.000000 -0.100000
vn 0.000000 0.000000 -0.100000
vn 0.000000 0.000000 -0.100000
vn 0.000000 0.000000 -0.100000
vn 0.000000 0.000000 -0.100000
vn 0.000000 0.000000 -0.100000
vn 0.000000 0.000000 -0.100000
vn 0.000000 0.000000 -0.100000
vn 0.000000 0.000000 -0.100000
vn 0.000000 0.000000 -0.100000
vn 0.000000 0.000000 -0.100000
vn 0.000000 0.000000 -0.100000
vn 0.000000 0.000000 -0.100000
vn 0.000000 0.000000 -0.100000
vn 0.000000 0.000000 -0.100000
vn 0.000000 0.000000 -0.100000
vn 0.000000 0.000000 -0.100000
vn 0.000000 0.000000 -0.100000
vn 0.000000 0.000000 -0.100000
vn 0.000000 0.000000 -0.100000
vn 0.000000 0.000000 -0.100000
vn 0.000000 0.000000 -0.100000
vn 0.000000 0.000000 -0.100000
vn 0.000000 0.000000 -0.100000
vn 0.000000 0.000000 -0.100000
vn 0.000000 0.000000 -0.100000
vn 0.000000 0.000000 -0.100000
vn 0.000000 0.000000 -0.100000
vn 0.000000 0.000000 -0.100000
vn 0.000000 0.000000 -0.100000
vn 0.000000 0.000000 -0.100000
vn 0.000000 0.000000 -0.100000
vn 0.000000 0.000000 -0.100000
vn 0.000000 0.000000 -0.100000
vn 0.000000 0.000000 -0.100000
vn 0.000000 0.000000 -0.100000
vn 0.000000 0.000000 -0.100000
vn 0.000000 0.000000 -0.100000
vn 0.000000 0.000000 -0.100000
vn 0.000000 0.000000 -0.100000
vn 0.000000 0.000000 -0.100000
vn 0.000000 0.000000 -0.100000
vn 0.000000 0.000000 -0.100000
vn 0.000000 0.000000 -0.100000
vn 0.000000 0.000000 -0.100000
vn 0.000000 0.000000 -0.100000
vn 0.000000 0.000000 -0.100000
vn 0.000000 0.000000 -0.100000
vn 0.000000 0.000000 -0.100000
vn 0.000000 0.000000 -0.100000
vn 0.000000 0.000000 -0.100000
vn 0.000000 0.000000 -0.100000
vn 0.000000 0.000000 -0.100000
vn 0.000000 0.000000 -0.100000
vn 0.000000 0.000000 -0.100000
vn 0.000000 0.000000 -0.100000
vn 0.000000 0.000000 -0.100000
vn 0.000000 0.000000 -0.100000
vn 0.000000 0.000000 -0.100000
vn 0.000000 0.000000 -0.100000
vn 0.000000 0.000000 -0.100000
vn 0.000000 0.000000 -0.100000
vn 0.000000 0.000000 -0.100000
vn 0.000000 0.000000 -0.100000
vn 0.000000 0.000000 -0.100000
vn 0.000000 0.000000 -0.100000
vn 0.000000 0.000000 -0.100000
vn 0.000000 0.000000 -0.100000
vn 0.000000 0.000000 -0.100000
vn 0.000000 0.000000 -0.100000
vn 0.000000 0.000000 -0.100000
vn 0.000000 0.000000 -0.100000
vn 0.000000 0.000000 -0.100000
vn 0.000000 0.000000 -0.100000
vn 0.000000 0.000000 -0.100000
vn 0.000000 0.000000 -0.100000
vn 0.000000 0.000000 -0.100000
vn 0.000000 0.000000 -0.100000
vn 0.100000 0.000000 0.000000
vn 0.100000 0.000000 0.000000
vn 0.100000 0.000000 0.000000
vn 0.100000 0.000000 0.000000
vn 0.098476 -0.017391 0.000000
vn 0.098476 -0.017391 0.000000
vn 0.099258 -0.012158 0.000000
vn 0.099258 -0.012158 0.000000
vn 0.099762 -0.006891 0.000000
vn 0.099762 -0.006891 0.000000
vn 0.099987 -0.001605 0.000000
vn 0.099987 -0.001605 0.000000
vn 0.099932 0.003686 0.000000
vn 0.099932 0.003686 0.000000
vn 0.099597 0.008966 0.000000
vn 0.099597 0.008966 0.000000
vn 0.098984 0.014222 0.000000
vn 0.098984 0.014222 0.000000
vn 0.098093 0.019437 0.000000
vn 0.098093 0.019437 0.000000
vn 0.096927 0.024598 0.000000
vn 0.096927 0.024598 0.000000
vn 0.095491 0.029691 0.000000
vn 0.095491 0.029691 0.000000
vn 0.093787 0.034700 0.000000
vn 0.093787 0.034700 0.000000
vn 0.091820 0.039612 0.000000
vn 0.091820 0.039612 0.000000
vn 0.089596 0.044413 0.000000
vn 0.089596 0.044413 0.000000
vn 0.087122 0.049090 0.000000
vn 0.087122 0.049090 0.000000
vn 0.084403 0.053629 0.000000
vn 0.084403 0.053629 0.000000
vn 0.081449 0.058018 0.000000
vn 0.081449 0.058018 0.000000
vn 0.078266 0.062245 0.000000
vn 0.078266 0.062245 0.000000
vn 0.074864 0.066298 0.000000
vn 0.074864 0.066298 0.000000
vn 0.071253 0.070165 0.000000
vn 0.071253 0.070165 0.000000
vn 0.067442 0.073835 0.000000
vn 0.067442 0.073835 0.000000
vn 0.063442 0.077299 0.000000
vn 0.063442 0.077299 0.000000
vn 0.059265 0.080546 0.000000
vn 0.059265 0.080546 0.000000
vn 0.054922 0.083568 0.000000
vn 0.054922 0.083568 0.000000
vn 0.050425 0.086356 0.000000
vn 0.050425 0.086356 0.000000
vn 0.045786 0.088902 0.000000
vn 0.045786 0.088902 0.000000
vn 0.041020 0.091200 0.000000
vn 0.041020 0.091200 0.000000
vn 0.036139 0.093242 0.000000
vn 0.036139 0.093242 0.000000
vn 0.031157 0.095022 0.000000
vn 0.031157 0.095022 0.000000
vn 0.026087 0.096537 0.000000
vn 0.026087 0.096537 0.000000
vn 0.000000 -0.100000 0.000000
vn 0.000000 -0.100000 0.000000
usemtl Steel_-_Satin
f 20/1/1 1/2/2 19/3/3
f 19/3/3 1/2/2 2/4/4
f 19/3/3 2/4/4 18/5/5
f 18/5/5 2/4/4 3/6/6
f 18/5/5 3/6/6 17/7/7
f 17/7/7 3/6/6 4/8/8
f 17/7/7 4/8/8 16/9/9
f 16/9/9 4/8/8 5/10/10
f 16/9/9 5/10/10 15/11/11
f 15/11/11 5/10/10 6/12/12
f 15/11/11 6/12/12 14/13/13
f 14/13/13 6/12/12 7/14/14
f 14/13/13 7/14/14 13/15/15
f 13/15/15 7/14/14 8/16/16
f 13/15/15 8/16/16 12/17/17
f 12/17/17 8/16/16 9/18/18
f 12/17/17 9/18/18 11/19/19
f 11/19/19 9/18/18 10/20/20
f 1/21/2 20/22/1 22/23/21
f 22/23/21 20/22/1 21/24/22
f 19/25/23 18/26/24 20/27/25
f 20/27/25 18/26/24 17/28/26
f 20/27/25 17/28/26 16/29/27
f 16/29/27 15/30/28 20/27/25
f 20/27/25 15/30/28 14/31/29
f 20/27/25 14/31/29 13/32/30
f 13/32/30 12/33/31 20/27/25
f 20/27/25 12/33/31 11/34/32
f 20/27/25 11/34/32 21/35/33
f 21/35/33 11/34/32 89/36/34
f 21/35/33 89/36/34 90/37/35
f 89/36/34 11/34/32 88/38/36
f 88/38/36 11/34/32 23/39/37
f 88/38/36 23/39/37 37/40/38
f 37/40/38 23/39/37 33/41/39
f 37/40/38 33/41/39 36/42/40
f 36/42/40 33/41/39 35/43/41
f 35/43/41 33/41/39 34/44/42
f 33/41/39 23/39/37 32/45/43
f 32/45/43 23/39/37 24/46/44
f 32/45/43 24/46/44 25/47/45
f 25/47/45 26/48/46 32/45/43
f 32/45/43 26/48/46 27/49/47
f 32/45/43 27/49/47 28/50/48
f 28/50/48 29/51/49 32/45/43
f 32/45/43 29/51/49 30/52/50
f 32/45/43 30/52/50 31/53/51
f 37/40/38 38/54/52 88/38/36
f 88/38/36 38/54/52 87/55/53
f 87/55/53 38/54/52 39/56/54
f 87/55/53 39/56/54 86/57/55
f 86/57/55 39/56/54 40/58/56
f 86/57/55 40/58/56 85/59/57
f 85/59/57 40/58/56 41/60/58
f 85/59/57 41/60/58 84/61/59
f 84/61/59 41/60/58 83/62/60
f 83/62/60 41/60/58 43/63/61
f 83/62/60 43/63/61 82/64/62
f 82/64/62 43/63/61 44/65/63
f 82/64/62 44/65/63 81/66/64
f 81/66/64 44/65/63 80/67/65
f 80/67/65 44/65/63 53/68/66
f 80/67/65 53/68/66 79/69/67
f 79/69/67 53/68/66 78/70/68
f 78/70/68 53/68/66 77/71/69
f 77/71/69 53/68/66 76/72/70
f 76/72/70 53/68/66 75/73/71
f 75/73/71 53/68/66 74/74/72
f 74/74/72 53/68/66 73/75/73
f 73/75/73 53/68/66 72/76/74
f 72/76/74 53/68/66 71/77/75
f 71/77/75 53/68/66 70/78/76
f 70/78/76 53/68/66 69/79/77
f 69/79/77 53/68/66 68/80/78
f 68/80/78 53/68/66 67/81/79
f 67/81/79 53/68/66 66/82/80
f 66/82/80 53/68/66 65/83/81
f 65/83/81 53/68/66 64/84/82
f 64/84/82 53/68/66 63/85/83
f 63/85/83 53/68/66 62/86/84
f 62/86/84 53/68/66 61/87/85
f 61/87/85 53/68/66 60/88/86
f 60/88/86 53/68/66 59/89/87
f 59/89/87 53/68/66 58/90/88
f 58/90/88 53/68/66 57/91/89
f 57/91/89 53/68/66 56/92/90
f 56/92/90 53/68/66 55/93/91
f 55/93/91 53/68/66 54/94/92
f 41/60/58 42/95/93 43/63/61
f 45/96/94 46/97/95 44/65/63
f 44/65/63 46/97/95 47/98/96
f 44/65/63 47/98/96 48/99/97
f 48/99/97 49/100/98 44/65/63
f 44/65/63 49/100/98 50/101/99
f 44/65/63 50/101/99 51/102/100
f 51/102/100 52/103/101 44/65/63
f 44/65/63 52/103/101 53/68/66
f 90/37/35 91/104/102 21/35/33
f 21/35/33 91/104/102 92/105/103
f 23/106/104 93/107/105 24/108/106
f 24/108/106 93/107/105 94/109/107
f 24/108/106 94/109/107 25/110/108
f 25/110/108 94/109/107 95/111/109
f 25/110/108 95/111/109 26/112/110
f 26/112/110 95/111/109 96/113/111
f 26/112/110 96/113/111 27/114/112
f 27/114/112 96/113/111 97/115/113
f 27/114/112 97/115/113 28/116/114
f 28/116/114 97/115/113 98/117/115
f 28/116/114 98/117/115 29/118/116
f 29/118/116 98/117/115 99/119/117
f 29/118/116 99/119/117 30/120/118
f 30/120/118 99/119/117 100/121/119
f 30/120/118 100/121/119 31/122/120
f 31/122/120 100/121/119 101/123/121
f 31/122/120 101/123/121 102/124/122
f 102/124/122 32/125/123 31/122/120
f 32/126/123 102/127/122 33/128/124
f 33/128/124 102/127/122 103/129/125
f 10/130/20 93/131/105 11/132/19
f 11/132/19 93/131/105 23/133/104
f 42/134/126 41/135/127 112/136/128
f 112/136/128 41/135/127 111/137/129
f 111/137/129 41/135/127 110/138/130
f 110/138/130 41/135/127 40/139/131
f 110/138/130 40/139/131 109/140/132
f 109/140/132 40/139/131 39/141/133
f 109/140/132 39/141/133 108/142/134
f 108/142/134 39/141/133 38/143/135
f 108/142/134 38/143/135 107/144/136
f 107/144/136 38/143/135 37/145/137
f 107/144/136 37/145/137 106/146/138
f 106/146/138 37/145/137 36/147/139
f 106/146/138 36/147/139 105/148/140
f 105/148/140 36/147/139 35/149/141
f 105/148/140 35/149/141 104/150/142
f 104/150/142 35/149/141 34/151/143
f 104/150/142 34/151/143 103/152/125
f 103/152/125 34/151/143 33/153/124
f 84/154/144 113/155/145 85/156/146
f 85/156/146 113/155/145 114/157/147
f 85/156/146 114/157/147 86/158/148
f 86/158/148 114/157/147 115/159/149
f 86/158/148 115/159/149 87/160/150
f 87/160/150 115/159/149 116/161/151
f 87/160/150 116/161/151 88/162/152
f 88/162/152 116/161/151 117/163/153
f 88/162/152 117/163/153 89/164/154
f 89/164/154 117/163/153 118/165/155
f 89/164/154 118/165/155 90/166/156
f 90/166/156 118/165/155 119/167/157
f 90/166/156 119/167/157 91/168/158
f 91/168/158 119/167/157 120/169/159
f 91/168/158 120/169/159 92/170/160
f 92/170/160 120/169/159 121/171/161
f 92/170/160 121/171/161 22/172/21
f 22/172/21 21/173/22 92/170/160
f 42/174/126 112/175/128 43/176/162
f 43/176/162 112/175/128 122/177/163
f 84/178/144 83/179/164 113/180/145
f 113/180/145 83/179/164 123/181/165
f 43/182/166 122/183/167 44/184/168
f 44/184/168 122/183/167 124/185/169
f 133/186/170 53/187/171 132/188/172
f 132/188/172 53/187/171 52/189/173
f 132/188/172 52/189/173 131/190/174
f 131/190/174 52/189/173 51/191/175
f 131/190/174 51/191/175 130/192/176
f 130/192/176 51/191/175 50/193/177
f 130/192/176 50/193/177 129/194/178
f 129/194/178 50/193/177 49/195/179
f 129/194/178 49/195/179 128/196/180
f 128/196/180 49/195/179 48/197/181
f 128/196/180 48/197/181 127/198/182
f 127/198/182 48/197/181 47/199/183
f 127/198/182 47/199/183 126/200/184
f 126/200/184 47/199/183 46/201/185
f 126/200/184 46/201/185 125/202/186
f 125/202/186 46/201/185 45/203/187
f 125/202/186 45/203/187 124/204/169
f 124/204/169 45/203/187 44/205/168
f 9/206/188 1/207/189 10/208/190
f 10/208/190 1/207/189 22/209/191
f 10/208/190 22/209/191 118/210/192
f 118/210/192 22/209/191 119/211/193
f 119/211/193 22/209/191 120/212/194
f 120/212/194 22/209/191 121/213/195
f 9/206/188 8/214/196 1/207/189
f 1/207/189 8/214/196 7/215/197
f 1/207/189 7/215/197 6/216/198
f 6/216/198 5/217/199 1/207/189
f 1/207/189 5/217/199 4/218/200
f 1/207/189 4/218/200 3/219/201
f 3/219/201 2/220/202 1/207/189
f 10/208/190 118/210/192 108/221/203
f 108/221/203 118/210/192 117/222/204
f 108/221/203 117/222/204 109/223/205
f 109/223/205 117/222/204 116/224/206
f 109/223/205 116/224/206 110/225/207
f 110/225/207 116/224/206 115/226/208
f 110/225/207 115/226/208 111/227/209
f 111/227/209 115/226/208 114/228/210
f 111/227/209 114/228/210 112/229/211
f 112/229/211 114/228/210 122/230/212
f 122/230/212 114/228/210 123/231/213
f 122/230/212 123/231/213 134/232/214
f 114/228/210 113/233/215 123/231/213
f 122/230/212 134/232/214 124/234/216
f 124/234/216 134/232/214 135/235/217
f 124/234/216 135/235/217 136/236/218
f 124/234/216 136/236/218 133/237/219
f 133/237/219 136/236/218 137/238/220
f 133/237/219 137/238/220 138/239/221
f 138/239/221 139/240/222 133/237/219
f 133/237/219 139/240/222 140/241/223
f 133/237/219 140/241/223 141/242/224
f 141/242/224 142/243/225 133/237/219
f 133/237/219 142/243/225 143/244/226
f 133/237/219 143/244/226 144/245/227
f 144/245/227 145/246/228 133/237/219
f 133/237/219 145/246/228 146/247/229
f 133/237/219 146/247/229 147/248/230
f 147/248/230 148/249/231 133/237/219
f 133/237/219 148/249/231 149/250/232
f 133/237/219 149/250/232 150/251/233
f 150/251/233 151/252/234 133/237/219
f 133/237/219 151/252/234 152/253/235
f 133/237/219 152/253/235 153/254/236
f 153/254/236 154/255/237 133/237/219
f 133/237/219 154/255/237 155/256/238
f 133/237/219 155/256/238 156/257/239
f 156/257/239 157/258/240 133/237/219
f 133/237/219 157/258/240 158/259/241
f 133/237/219 158/259/241 159/260/242
f 159/260/242 160/261/243 133/237/219
f 133/237/219 160/261/243 161/262/244
f 133/237/219 161/262/244 162/263/245
f 133/237/219 132/264/246 124/234/216
f 124/234/216 132/264/246 131/265/247
f 124/234/216 131/265/247 130/266/248
f 130/266/248 129/267/249 124/234/216
f 124/234/216 129/267/249 128/268/250
f 124/234/216 128/268/250 127/269/251
f 127/269/251 126/270/252 124/234/216
f 124/234/216 126/270/252 125/271/253
f 107/272/254 103/273/255 108/221/203
f 108/221/203 103/273/255 93/274/256
f 108/221/203 93/274/256 10/208/190
f 107/272/254 106/275/257 103/273/255
f 103/273/255 106/275/257 105/276/258
f 103/273/255 105/276/258 104/277/259
f 103/273/255 102/278/260 93/274/256
f 93/274/256 102/278/260 94/279/261
f 94/279/261 102/278/260 95/280/262
f 95/280/262 102/278/260 96/281/263
f 96/281/263 102/278/260 97/282/264
f 97/282/264 102/278/260 98/283/265
f 98/283/265 102/278/260 99/284/266
f 99/284/266 102/278/260 100/285/267
f 100/285/267 102/278/260 101/286/268
f 83/287/269 82/288/270 123/289/271
f 123/289/271 82/288/270 134/290/272
f 54/291/273 162/292/274 55/293/275
f 55/293/275 162/292/274 161/294/276
f 55/293/275 161/294/276 56/295/277
f 56/295/277 161/294/276 160/296/278
f 56/295/277 160/296/278 57/297/279
f 57/297/279 160/296/278 159/298/280
f 57/297/279 159/298/280 58/299/281
f 58/299/281 159/298/280 158/300/282
f 58/299/281 158/300/282 59/301/283
f 59/301/283 158/300/282 157/302/284
f 59/301/283 157/302/284 60/303/285
f 60/303/285 157/302/284 156/304/286
f 60/303/285 156/304/286 61/305/287
f 61/305/287 156/304/286 155/306/288
f 61/305/287 155/306/288 62/307/289
f 62/307/289 155/306/288 154/308/290
f 62/307/289 154/308/290 63/309/291
f 63/309/291 154/308/290 153/310/292
f 63/309/291 153/310/292 64/311/293
f 64/311/293 153/310/292 152/312/294
f 64/311/293 152/312/294 65/313/295
f 65/313/295 152/312/294 151/314/296
f 65/313/295 151/314/296 66/315/297
f 66/315/297 151/314/296 150/316/298
f 66/315/297 150/316/298 67/317/299
f 67/317/299 150/316/298 149/318/300
f 67/317/299 149/318/300 68/319/301
f 68/319/301 149/318/300 148/320/302
f 68/319/301 148/320/302 69/321/303
f 69/321/303 148/320/302 147/322/304
f 69/321/303 147/322/304 70/323/305
f 70/323/305 147/322/304 146/324/306
f 70/323/305 146/324/306 71/325/307
f 71/325/307 146/324/306 145/326/308
f 71/325/307 145/326/308 72/327/309
f 72/327/309 145/326/308 144/328/310
f 72/327/309 144/328/310 73/329/311
f 73/329/311 144/328/310 143/330/312
f 73/329/311 143/330/312 74/331/313
f 74/331/313 143/330/312 142/332/314
f 74/331/313 142/332/314 75/333/315
f 75/333/315 142/332/314 141/334/316
f 75/333/315 141/334/316 76/335/317
f 76/335/317 141/334/316 140/336/318
f 76/335/317 140/336/318 77/337/319
f 77/337/319 140/336/318 139/338/320
f 77/337/319 139/338/320 78/339/321
f 78/339/321 139/338/320 138/340/322
f 78/339/321 138/340/322 79/341/323
f 79/341/323 138/340/322 137/342/324
f 79/341/323 137/342/324 80/343/325
f 80/343/325 137/342/324 136/344/326
f 80/343/325 136/344/326 81/345/327
f 81/345/327 136/344/326 135/346/328
f 81/345/327 135/346/328 82/347/329
f 82/347/329 135/346/328 134/348/330
f 133/349/170 162/350/331 53/351/171
f 53/351/171 162/350/331 54/352/332
# 162 vertices
# 352 texture params
# 332 normals
# 320 facets

# 1 groups
