# WaveFront *.obj file (generated by Autodesk ATF)

mtllib EBoxRid.mtl

g EBoxRid

v -120.000002 195.000003 8.000000
v -170.000002 195.000003 8.000000
v -170.000002 195.000003 10.000000
v -120.000002 195.000003 10.000000
v -120.000002 216.000003 8.000000
v -120.000002 216.000003 10.000000
v -170.000002 216.000003 8.000000
v -170.000002 216.000003 10.000000
v -100.000001 276.000002 8.000000
v -190.000002 276.000001 8.000000
v -190.000002 276.000001 10.000000
v -100.000001 276.000002 10.000000
v -190.667565 275.924784 8.000000
v -191.301653 275.702907 8.000000
v -191.870472 275.345495 8.000000
v -192.345497 274.870470 8.000000
v -192.702909 274.301652 8.000000
v -192.924786 273.667564 8.000000
v -193.000002 273.000001 8.000000
v -193.000002 273.000001 10.000000
v -192.924786 273.667564 10.000000
v -192.702909 274.301652 10.000000
v -192.345497 274.870470 10.000000
v -191.870472 275.345495 10.000000
v -191.301653 275.702907 10.000000
v -190.667565 275.924784 10.000000
v -193.000002 183.000001 8.000000
v -193.000002 183.000001 10.000000
v -192.924786 182.332438 8.000000
v -192.702909 181.698350 8.000000
v -192.345497 181.129531 8.000000
v -191.870472 180.654506 8.000000
v -191.301653 180.297094 8.000000
v -190.667565 180.075217 8.000000
v -190.000002 180.000001 8.000000
v -190.000002 180.000001 10.000000
v -190.667565 180.075217 10.000000
v -191.301653 180.297094 10.000000
v -191.870472 180.654506 10.000000
v -192.345497 181.129531 10.000000
v -192.702909 181.698350 10.000000
v -192.924786 182.332438 10.000000
v -97.000001 273.000002 8.000000
v -97.075218 273.667565 8.000000
v -97.297095 274.301653 8.000000
v -97.654507 274.870472 8.000000
v -98.129532 275.345497 8.000000
v -98.698350 275.702909 8.000000
v -99.332439 275.924786 8.000000
v -99.332439 275.924786 10.000000
v -98.698350 275.702909 10.000000
v -98.129532 275.345497 10.000000
v -97.654507 274.870472 10.000000
v -97.297095 274.301653 10.000000
v -97.075218 273.667565 10.000000
v -97.000001 273.000002 10.000000
v -97.000001 183.000001 8.000000
v -97.000001 183.000001 10.000000
v -100.000001 180.000001 8.000000
v -99.332439 180.075217 8.000000
v -98.698350 180.297094 8.000000
v -98.129532 180.654506 8.000000
v -97.654507 181.129531 8.000000
v -97.297095 181.698350 8.000000
v -97.075218 182.332438 8.000000
v -97.075218 182.332438 10.000000
v -97.297095 181.698350 10.000000
v -97.654507 181.129531 10.000000
v -98.129532 180.654506 10.000000
v -98.698350 180.297094 10.000000
v -99.332439 180.075217 10.000000
v -100.000001 180.000001 10.000000
v -185.000003 268.000004 8.000000
v -171.000003 268.000004 8.000000
v -171.000003 268.000004 10.000000
v -185.000003 268.000004 10.000000
v -171.000003 260.000004 8.000000
v -171.000003 260.000004 10.000000
v -185.000003 260.000004 8.000000
v -185.000003 260.000004 10.000000
v -152.000002 255.000004 8.000000
v -152.000002 268.000004 8.000000
v -152.000002 268.000004 10.000000
v -152.000002 255.000004 10.000000
v -135.000002 268.000004 8.000000
v -135.000002 268.000004 10.000000
v -135.000002 255.000004 8.000000
v -135.000002 255.000004 10.000000
v -119.780961 180.000001 8.000000
v -122.565573 181.309809 8.000000
v -125.417929 182.464679 8.000000
v -128.329417 183.461123 8.000000
v -131.291243 184.296133 8.000000
v -134.294466 184.967186 8.000000
v -137.330016 185.472258 8.000000
v -140.388726 185.809822 8.000000
v -143.461362 185.978859 8.000000
v -146.538643 185.978859 8.000000
v -149.611278 185.809822 8.000000
v -152.669988 185.472258 8.000000
v -155.705538 184.967186 8.000000
v -158.708761 184.296133 8.000000
v -161.670588 183.461123 8.000000
v -164.582075 182.464679 8.000000
v -167.434431 181.309809 8.000000
v -170.219043 180.000001 8.000000
v -170.219043 180.000001 10.000000
v -119.780961 180.000001 10.000000
v -167.434431 181.309809 10.000000
v -164.582075 182.464679 10.000000
v -161.670588 183.461123 10.000000
v -158.708761 184.296133 10.000000
v -155.705538 184.967186 10.000000
v -152.669988 185.472258 10.000000
v -149.611278 185.809822 10.000000
v -146.538643 185.978859 10.000000
v -143.461362 185.978859 10.000000
v -140.388726 185.809822 10.000000
v -137.330016 185.472258 10.000000
v -134.294466 184.967186 10.000000
v -131.291243 184.296133 10.000000
v -128.329417 183.461123 10.000000
v -125.417929 182.464679 10.000000
v -122.565573 181.309809 10.000000
vt -0.000000 0.200000 0.000000
vt -5.000000 0.200000 0.000000
vt -0.000000 0.000000 0.000000
vt -5.000000 0.000000 0.000000
vt -0.000000 0.200000 0.000000
vt -2.100000 0.200000 0.000000
vt -0.000000 0.000000 0.000000
vt -2.100000 0.000000 0.000000
vt -0.000000 0.200000 0.000000
vt -5.000000 0.200000 0.000000
vt -0.000000 0.000000 0.000000
vt -5.000000 0.000000 0.000000
vt -0.000000 0.200000 0.000000
vt -2.100000 0.200000 0.000000
vt -0.000000 0.000000 0.000000
vt -2.100000 0.000000 0.000000
vt -0.000000 4.800000 0.000000
vt 9.000000 4.800000 0.000000
vt -0.000000 5.000000 0.000000
vt 9.000000 5.000000 0.000000
vt -5.000000 0.000000 0.000000
vt -4.800000 0.000000 0.000000
vt -5.000000 0.067320 0.000000
vt -4.800000 0.067320 0.000000
vt -5.000000 0.134640 0.000000
vt -4.800000 0.134640 0.000000
vt -5.000000 0.201960 0.000000
vt -4.800000 0.201960 0.000000
vt -5.000000 0.269279 0.000000
vt -4.800000 0.269279 0.000000
vt -5.000000 0.336599 0.000000
vt -4.800000 0.336599 0.000000
vt -5.000000 0.403919 0.000000
vt -4.800000 0.403919 0.000000
vt -5.000000 0.471239 0.000000
vt -4.800000 0.471239 0.000000
vt 0.000000 4.800000 0.000000
vt 9.000000 4.800000 0.000000
vt 0.000000 5.000000 0.000000
vt 9.000000 5.000000 0.000000
vt -5.000000 0.000000 0.000000
vt -4.800000 0.000000 0.000000
vt -5.000000 0.067320 0.000000
vt -4.800000 0.067320 0.000000
vt -5.000000 0.134640 0.000000
vt -4.800000 0.134640 0.000000
vt -5.000000 0.201960 0.000000
vt -4.800000 0.201960 0.000000
vt -5.000000 0.269279 0.000000
vt -4.800000 0.269279 0.000000
vt -5.000000 0.336599 0.000000
vt -4.800000 0.336599 0.000000
vt -5.000000 0.403919 0.000000
vt -4.800000 0.403919 0.000000
vt -5.000000 0.471239 0.000000
vt -4.800000 0.471239 0.000000
vt -5.000000 0.000000 0.000000
vt -4.800000 0.000000 0.000000
vt -5.000000 0.067320 0.000000
vt -4.800000 0.067320 0.000000
vt -5.000000 0.134640 0.000000
vt -4.800000 0.134640 0.000000
vt -5.000000 0.201960 0.000000
vt -4.800000 0.201960 0.000000
vt -5.000000 0.269279 0.000000
vt -4.800000 0.269279 0.000000
vt -5.000000 0.336599 0.000000
vt -4.800000 0.336599 0.000000
vt -5.000000 0.403919 0.000000
vt -4.800000 0.403919 0.000000
vt -5.000000 0.471239 0.000000
vt -4.800000 0.471239 0.000000
vt 0.000000 4.800000 0.000000
vt 9.000000 4.800000 0.000000
vt 0.000000 5.000000 0.000000
vt 9.000000 5.000000 0.000000
vt -5.000000 0.000000 0.000000
vt -4.800000 0.000000 0.000000
vt -5.000000 0.067320 0.000000
vt -4.800000 0.067320 0.000000
vt -5.000000 0.134640 0.000000
vt -4.800000 0.134640 0.000000
vt -5.000000 0.201960 0.000000
vt -4.800000 0.201960 0.000000
vt -5.000000 0.269279 0.000000
vt -4.800000 0.269279 0.000000
vt -5.000000 0.336599 0.000000
vt -4.800000 0.336599 0.000000
vt -5.000000 0.403919 0.000000
vt -4.800000 0.403919 0.000000
vt -5.000000 0.471239 0.000000
vt -4.800000 0.471239 0.000000
vt -0.000000 0.200000 0.000000
vt -1.400000 0.200000 0.000000
vt -0.000000 0.000000 0.000000
vt -1.400000 0.000000 0.000000
vt -0.000000 0.200000 0.000000
vt -0.800000 0.200000 0.000000
vt -0.000000 0.000000 0.000000
vt -0.800000 0.000000 0.000000
vt -0.000000 0.200000 0.000000
vt -1.400000 0.200000 0.000000
vt -0.000000 0.000000 0.000000
vt -1.400000 0.000000 0.000000
vt -0.000000 0.200000 0.000000
vt -0.800000 0.200000 0.000000
vt -0.000000 0.000000 0.000000
vt -0.800000 0.000000 0.000000
vt -0.000000 0.200000 0.000000
vt -1.300000 0.200000 0.000000
vt -0.000000 0.000000 0.000000
vt -1.300000 0.000000 0.000000
vt -0.000000 0.200000 0.000000
vt -1.700000 0.200000 0.000000
vt -0.000000 0.000000 0.000000
vt -1.700000 0.000000 0.000000
vt -0.000000 0.200000 0.000000
vt -1.300000 0.200000 0.000000
vt 0.000000 0.000000 0.000000
vt -1.300000 0.000000 0.000000
vt -0.000000 0.200000 0.000000
vt -1.700000 0.200000 0.000000
vt 0.000000 0.000000 0.000000
vt -1.700000 0.000000 0.000000
vt -2.500000 1.200000 0.000000
vt -0.700000 -2.700000 0.000000
vt 2.500000 1.200000 0.000000
vt 1.000000 -2.700000 0.000000
vt 4.800000 -4.500000 0.000000
vt 4.500000 -4.800000 0.000000
vt 4.566756 -4.792478 0.000000
vt -2.500000 3.300000 0.000000
vt -4.800000 4.500000 0.000000
vt -4.000000 -3.200000 0.000000
vt -2.600000 -3.200000 0.000000
vt 2.500000 3.300000 0.000000
vt 0.153864 4.202114 0.000000
vt -0.153864 4.202114 0.000000
vt -0.461128 4.219018 0.000000
vt 4.800000 4.500000 0.000000
vt 4.500000 4.800000 0.000000
vt 2.521904 4.800000 0.000000
vt 2.243443 4.669019 0.000000
vt 1.958207 4.553532 0.000000
vt 1.667059 4.453888 0.000000
vt 1.370876 4.370387 0.000000
vt 1.070554 4.303282 0.000000
vt 0.766999 4.252774 0.000000
vt 0.461128 4.219018 0.000000
vt -0.766999 4.252774 0.000000
vt -1.070554 4.303282 0.000000
vt -1.370876 4.370387 0.000000
vt -1.667059 4.453888 0.000000
vt -1.958207 4.553532 0.000000
vt -2.243443 4.669019 0.000000
vt -2.521904 4.800000 0.000000
vt -4.500000 4.800000 0.000000
vt -4.566756 4.792478 0.000000
vt -4.630165 4.770291 0.000000
vt -4.687047 4.734550 0.000000
vt -4.734549 4.687047 0.000000
vt -4.770291 4.630165 0.000000
vt -4.792478 4.566756 0.000000
vt -4.800000 -4.500000 0.000000
vt -4.000000 -4.000000 0.000000
vt -4.500000 -4.800000 0.000000
vt -2.600000 -4.000000 0.000000
vt -0.700000 -4.000000 0.000000
vt -4.792478 -4.566756 0.000000
vt -4.770291 -4.630165 0.000000
vt -4.734549 -4.687047 0.000000
vt -4.687047 -4.734549 0.000000
vt -4.630165 -4.770291 0.000000
vt -4.566756 -4.792478 0.000000
vt 1.000000 -4.000000 0.000000
vt 4.630165 -4.770291 0.000000
vt 4.687047 -4.734550 0.000000
vt 4.734549 -4.687047 0.000000
vt 4.770291 -4.630165 0.000000
vt 4.792478 -4.566756 0.000000
vt 4.792478 4.566756 0.000000
vt 4.770291 4.630165 0.000000
vt 4.734549 4.687047 0.000000
vt 4.687047 4.734550 0.000000
vt 4.630165 4.770291 0.000000
vt 4.566756 4.792478 0.000000
vt 1.978096 5.000000 0.000000
vt 0.000000 5.000000 0.000000
vt 1.978096 4.800000 0.000000
vt 0.000000 4.800000 0.000000
vt 7.021904 4.800000 0.000000
vt 9.000000 4.800000 0.000000
vt 7.021904 5.000000 0.000000
vt 9.000000 5.000000 0.000000
vt -2.500000 1.200000 0.000000
vt 0.700000 -2.700000 0.000000
vt 2.500000 1.200000 0.000000
vt 2.600000 -3.200000 0.000000
vt 4.000000 -3.200000 0.000000
vt -2.500000 3.300000 0.000000
vt -4.800000 4.500000 0.000000
vt -4.800000 -4.500000 0.000000
vt -1.000000 -2.700000 0.000000
vt -4.500000 -4.800000 0.000000
vt -1.000000 -4.000000 0.000000
vt 0.700000 -4.000000 0.000000
vt 4.500000 -4.800000 0.000000
vt 2.600000 -4.000000 0.000000
vt 4.000000 -4.000000 0.000000
vt 4.800000 -4.500000 0.000000
vt 4.800000 4.500000 0.000000
vt 2.500000 3.300000 0.000000
vt 4.500000 4.800000 0.000000
vt 2.521904 4.800000 0.000000
vt -0.153864 4.202114 0.000000
vt -0.461128 4.219018 0.000000
vt -0.766999 4.252774 0.000000
vt 2.243443 4.669019 0.000000
vt 1.958207 4.553532 0.000000
vt 1.667059 4.453888 0.000000
vt 1.370876 4.370387 0.000000
vt 1.070554 4.303282 0.000000
vt 0.766999 4.252774 0.000000
vt 0.461128 4.219018 0.000000
vt 0.153864 4.202114 0.000000
vt -1.070554 4.303282 0.000000
vt -1.370876 4.370387 0.000000
vt -1.667059 4.453888 0.000000
vt -1.958207 4.553532 0.000000
vt -2.243443 4.669019 0.000000
vt -2.521904 4.800000 0.000000
vt -4.500000 4.800000 0.000000
vt -4.566756 4.792478 0.000000
vt -4.630165 4.770291 0.000000
vt -4.687047 4.734550 0.000000
vt -4.734549 4.687047 0.000000
vt -4.770291 4.630165 0.000000
vt -4.792478 4.566756 0.000000
vt -4.792478 -4.566756 0.000000
vt -4.770291 -4.630165 0.000000
vt -4.734549 -4.687047 0.000000
vt -4.687047 -4.734550 0.000000
vt -4.630165 -4.770291 0.000000
vt -4.566756 -4.792478 0.000000
vt 4.566756 -4.792478 0.000000
vt 4.630165 -4.770291 0.000000
vt 4.687047 -4.734549 0.000000
vt 4.734549 -4.687047 0.000000
vt 4.770291 -4.630165 0.000000
vt 4.792478 -4.566756 0.000000
vt 4.792478 4.566756 0.000000
vt 4.770291 4.630165 0.000000
vt 4.734549 4.687047 0.000000
vt 4.687047 4.734550 0.000000
vt 4.630165 4.770291 0.000000
vt 4.566756 4.792478 0.000000
vt 0.400000 11.412478 0.000000
vt 0.200000 11.412478 0.000000
vt 0.400000 11.104711 0.000000
vt 0.200000 11.104711 0.000000
vt 0.400000 10.796944 0.000000
vt 0.200000 10.796944 0.000000
vt 0.400000 10.489177 0.000000
vt 0.200000 10.489177 0.000000
vt 0.400000 10.181410 0.000000
vt 0.200000 10.181410 0.000000
vt 0.400000 9.873644 0.000000
vt 0.200000 9.873644 0.000000
vt 0.400000 9.565877 0.000000
vt 0.200000 9.565877 0.000000
vt 0.400000 9.258110 0.000000
vt 0.200000 9.258110 0.000000
vt 0.400000 8.950343 0.000000
vt 0.200000 8.950343 0.000000
vt 0.400000 8.642576 0.000000
vt 0.200000 8.642576 0.000000
vt 0.400000 8.334809 0.000000
vt 0.200000 8.334809 0.000000
vt 0.400000 8.027042 0.000000
vt 0.200000 8.027042 0.000000
vt 0.400000 7.719276 0.000000
vt 0.200000 7.719276 0.000000
vt 0.400000 7.411509 0.000000
vt 0.200000 7.411509 0.000000
vt 0.400000 7.103742 0.000000
vt 0.200000 7.103742 0.000000
vt 0.400000 6.795975 0.000000
vt 0.200000 6.795975 0.000000
vt 0.400000 6.488208 0.000000
vt 0.200000 6.488208 0.000000
vt 0.400000 6.180441 0.000000
vt 0.200000 6.180441 0.000000
vn 0.000000 0.100000 0.000000
vn 0.000000 0.100000 0.000000
vn 0.000000 0.100000 0.000000
vn 0.000000 0.100000 0.000000
vn -0.100000 0.000000 0.000000
vn -0.100000 0.000000 0.000000
vn -0.100000 0.000000 0.000000
vn -0.100000 0.000000 0.000000
vn 0.000000 -0.100000 0.000000
vn 0.000000 -0.100000 0.000000
vn 0.000000 -0.100000 0.000000
vn 0.000000 -0.100000 0.000000
vn 0.100000 0.000000 0.000000
vn 0.100000 0.000000 0.000000
vn 0.100000 0.000000 0.000000
vn 0.100000 0.000000 0.000000
vn -0.000000 0.100000 0.000000
vn -0.000000 0.100000 0.000000
vn -0.000000 0.100000 0.000000
vn -0.000000 0.100000 0.000000
vn -0.000000 0.100000 -0.000000
vn -0.000000 0.100000 -0.000000
vn -0.022252 0.097493 -0.000000
vn -0.022252 0.097493 -0.000000
vn -0.043388 0.090097 -0.000000
vn -0.043388 0.090097 -0.000000
vn -0.062349 0.078183 -0.000000
vn -0.062349 0.078183 -0.000000
vn -0.078183 0.062349 -0.000000
vn -0.078183 0.062349 -0.000000
vn -0.090097 0.043388 -0.000000
vn -0.090097 0.043388 -0.000000
vn -0.097493 0.022252 -0.000000
vn -0.097493 0.022252 -0.000000
vn -0.100000 0.000000 -0.000000
vn -0.100000 0.000000 -0.000000
vn -0.100000 -0.000000 0.000000
vn -0.100000 -0.000000 0.000000
vn -0.097493 -0.022252 0.000000
vn -0.097493 -0.022252 0.000000
vn -0.090097 -0.043388 0.000000
vn -0.090097 -0.043388 0.000000
vn -0.078183 -0.062349 0.000000
vn -0.078183 -0.062349 0.000000
vn -0.062349 -0.078183 0.000000
vn -0.062349 -0.078183 0.000000
vn -0.043388 -0.090097 0.000000
vn -0.043388 -0.090097 0.000000
vn -0.022252 -0.097493 0.000000
vn -0.022252 -0.097493 0.000000
vn -0.000000 -0.100000 0.000000
vn -0.000000 -0.100000 0.000000
vn 0.100000 0.000000 0.000000
vn 0.100000 0.000000 0.000000
vn 0.097493 0.022252 0.000000
vn 0.097493 0.022252 0.000000
vn 0.090097 0.043388 0.000000
vn 0.090097 0.043388 0.000000
vn 0.078183 0.062349 0.000000
vn 0.078183 0.062349 0.000000
vn 0.062349 0.078183 0.000000
vn 0.062349 0.078183 0.000000
vn 0.043388 0.090097 0.000000
vn 0.043388 0.090097 0.000000
vn 0.022252 0.097493 0.000000
vn 0.022252 0.097493 0.000000
vn -0.000000 0.100000 -0.000000
vn -0.000000 0.100000 -0.000000
vn 0.100000 -0.000000 0.000000
vn 0.100000 -0.000000 0.000000
vn 0.000000 -0.100000 0.000000
vn 0.000000 -0.100000 0.000000
vn 0.022252 -0.097493 0.000000
vn 0.022252 -0.097493 0.000000
vn 0.043388 -0.090097 0.000000
vn 0.043388 -0.090097 0.000000
vn 0.062349 -0.078183 0.000000
vn 0.062349 -0.078183 0.000000
vn 0.078183 -0.062349 0.000000
vn 0.078183 -0.062349 0.000000
vn 0.090097 -0.043388 0.000000
vn 0.090097 -0.043388 0.000000
vn 0.097493 -0.022252 0.000000
vn 0.097493 -0.022252 0.000000
vn 0.000000 -0.100000 0.000000
vn 0.000000 -0.100000 0.000000
vn 0.000000 -0.100000 0.000000
vn 0.000000 -0.100000 0.000000
vn -0.100000 0.000000 0.000000
vn -0.100000 0.000000 0.000000
vn -0.100000 0.000000 0.000000
vn -0.100000 0.000000 0.000000
vn 0.000000 0.100000 0.000000
vn 0.000000 0.100000 0.000000
vn 0.000000 0.100000 0.000000
vn 0.000000 0.100000 0.000000
vn 0.100000 0.000000 0.000000
vn 0.100000 0.000000 0.000000
vn 0.100000 0.000000 0.000000
vn 0.100000 0.000000 0.000000
vn 0.100000 0.000000 0.000000
vn 0.100000 0.000000 0.000000
vn 0.100000 0.000000 0.000000
vn 0.100000 0.000000 0.000000
vn 0.000000 -0.100000 0.000000
vn 0.000000 -0.100000 0.000000
vn 0.000000 -0.100000 0.000000
vn 0.000000 -0.100000 0.000000
vn -0.100000 0.000000 0.000000
vn -0.100000 0.000000 0.000000
vn -0.100000 0.000000 0.000000
vn -0.100000 0.000000 0.000000
vn -0.000000 0.100000 -0.000000
vn -0.000000 0.100000 -0.000000
vn -0.000000 0.100000 -0.000000
vn -0.000000 0.100000 -0.000000
vn 0.000000 0.000000 -0.100000
vn 0.000000 0.000000 -0.100000
vn 0.000000 0.000000 -0.100000
vn 0.000000 0.000000 -0.100000
vn 0.000000 0.000000 -0.100000
vn 0.000000 0.000000 -0.100000
vn 0.000000 0.000000 -0.100000
vn 0.000000 0.000000 -0.100000
vn 0.000000 0.000000 -0.100000
vn 0.000000 0.000000 -0.100000
vn 0.000000 0.000000 -0.100000
vn 0.000000 0.000000 -0.100000
vn 0.000000 0.000000 -0.100000
vn 0.000000 0.000000 -0.100000
vn 0.000000 0.000000 -0.100000
vn 0.000000 0.000000 -0.100000
vn 0.000000 0.000000 -0.100000
vn 0.000000 0.000000 -0.100000
vn 0.000000 0.000000 -0.100000
vn 0.000000 0.000000 -0.100000
vn 0.000000 0.000000 -0.100000
vn 0.000000 0.000000 -0.100000
vn 0.000000 0.000000 -0.100000
vn 0.000000 0.000000 -0.100000
vn 0.000000 0.000000 -0.100000
vn 0.000000 0.000000 -0.100000
vn 0.000000 0.000000 -0.100000
vn 0.000000 0.000000 -0.100000
vn 0.000000 0.000000 -0.100000
vn 0.000000 0.000000 -0.100000
vn 0.000000 0.000000 -0.100000
vn 0.000000 0.000000 -0.100000
vn 0.000000 0.000000 -0.100000
vn 0.000000 0.000000 -0.100000
vn 0.000000 0.000000 -0.100000
vn 0.000000 0.000000 -0.100000
vn 0.000000 0.000000 -0.100000
vn 0.000000 0.000000 -0.100000
vn 0.000000 0.000000 -0.100000
vn 0.000000 0.000000 -0.100000
vn 0.000000 0.000000 -0.100000
vn 0.000000 0.000000 -0.100000
vn 0.000000 0.000000 -0.100000
vn 0.000000 0.000000 -0.100000
vn 0.000000 0.000000 -0.100000
vn 0.000000 0.000000 -0.100000
vn 0.000000 0.000000 -0.100000
vn 0.000000 0.000000 -0.100000
vn 0.000000 0.000000 -0.100000
vn 0.000000 0.000000 -0.100000
vn 0.000000 0.000000 -0.100000
vn 0.000000 0.000000 -0.100000
vn 0.000000 0.000000 -0.100000
vn 0.000000 0.000000 -0.100000
vn 0.000000 0.000000 -0.100000
vn 0.000000 0.000000 -0.100000
vn 0.000000 0.000000 -0.100000
vn 0.000000 0.000000 -0.100000
vn 0.000000 0.000000 -0.100000
vn 0.000000 0.000000 -0.100000
vn 0.000000 0.000000 -0.100000
vn 0.000000 0.000000 -0.100000
vn 0.000000 -0.100000 0.000000
vn 0.000000 -0.100000 0.000000
vn 0.000000 -0.100000 0.000000
vn 0.000000 -0.100000 0.000000
vn 0.000000 0.000000 0.100000
vn 0.000000 0.000000 0.100000
vn 0.000000 0.000000 0.100000
vn 0.000000 0.000000 0.100000
vn 0.000000 0.000000 0.100000
vn 0.000000 0.000000 0.100000
vn 0.000000 0.000000 0.100000
vn 0.000000 0.000000 0.100000
vn 0.000000 0.000000 0.100000
vn 0.000000 0.000000 0.100000
vn 0.000000 0.000000 0.100000
vn 0.000000 0.000000 0.100000
vn 0.000000 0.000000 0.100000
vn 0.000000 0.000000 0.100000
vn 0.000000 0.000000 0.100000
vn 0.000000 0.000000 0.100000
vn 0.000000 0.000000 0.100000
vn 0.000000 0.000000 0.100000
vn 0.000000 0.000000 0.100000
vn 0.000000 0.000000 0.100000
vn 0.000000 0.000000 0.100000
vn 0.000000 0.000000 0.100000
vn 0.000000 0.000000 0.100000
vn 0.000000 0.000000 0.100000
vn 0.000000 0.000000 0.100000
vn 0.000000 0.000000 0.100000
vn 0.000000 0.000000 0.100000
vn 0.000000 0.000000 0.100000
vn 0.000000 0.000000 0.100000
vn 0.000000 0.000000 0.100000
vn 0.000000 0.000000 0.100000
vn 0.000000 0.000000 0.100000
vn 0.000000 0.000000 0.100000
vn 0.000000 0.000000 0.100000
vn 0.000000 0.000000 0.100000
vn 0.000000 0.000000 0.100000
vn 0.000000 0.000000 0.100000
vn 0.000000 0.000000 0.100000
vn 0.000000 0.000000 0.100000
vn 0.000000 0.000000 0.100000
vn 0.000000 0.000000 0.100000
vn 0.000000 0.000000 0.100000
vn 0.000000 0.000000 0.100000
vn 0.000000 0.000000 0.100000
vn 0.000000 0.000000 0.100000
vn 0.000000 0.000000 0.100000
vn 0.000000 0.000000 0.100000
vn 0.000000 0.000000 0.100000
vn 0.000000 0.000000 0.100000
vn 0.000000 0.000000 0.100000
vn 0.000000 0.000000 0.100000
vn 0.000000 0.000000 0.100000
vn 0.000000 0.000000 0.100000
vn 0.000000 0.000000 0.100000
vn 0.000000 0.000000 0.100000
vn 0.000000 0.000000 0.100000
vn 0.000000 0.000000 0.100000
vn 0.000000 0.000000 0.100000
vn 0.000000 0.000000 0.100000
vn 0.000000 0.000000 0.100000
vn 0.000000 0.000000 0.100000
vn 0.000000 0.000000 0.100000
vn 0.045034 -0.089286 0.000000
vn 0.045034 -0.089286 0.000000
vn 0.040061 -0.091625 0.000000
vn 0.040061 -0.091625 0.000000
vn 0.034968 -0.093687 0.000000
vn 0.034968 -0.093687 0.000000
vn 0.029769 -0.095466 0.000000
vn 0.029769 -0.095466 0.000000
vn 0.024480 -0.096957 0.000000
vn 0.024480 -0.096957 0.000000
vn 0.019117 -0.098156 0.000000
vn 0.019117 -0.098156 0.000000
vn 0.013696 -0.099058 0.000000
vn 0.013696 -0.099058 0.000000
vn 0.008234 -0.099660 0.000000
vn 0.008234 -0.099660 0.000000
vn 0.002748 -0.099962 0.000000
vn 0.002748 -0.099962 0.000000
vn -0.002748 -0.099962 0.000000
vn -0.002748 -0.099962 0.000000
vn -0.008234 -0.099660 0.000000
vn -0.008234 -0.099660 0.000000
vn -0.013696 -0.099058 0.000000
vn -0.013696 -0.099058 0.000000
vn -0.019117 -0.098156 0.000000
vn -0.019117 -0.098156 0.000000
vn -0.024480 -0.096957 0.000000
vn -0.024480 -0.096957 0.000000
vn -0.029769 -0.095466 0.000000
vn -0.029769 -0.095466 0.000000
vn -0.034968 -0.093687 0.000000
vn -0.034968 -0.093687 0.000000
vn -0.040061 -0.091625 0.000000
vn -0.040061 -0.091625 0.000000
vn -0.045034 -0.089286 0.000000
vn -0.045034 -0.089286 0.000000
usemtl Steel_-_Satin
f 1/1/1 2/2/2 4/3/3
f 4/3/3 2/2/2 3/4/4
f 5/5/5 1/6/6 6/7/7
f 6/7/7 1/6/6 4/8/8
f 7/9/9 5/10/10 8/11/11
f 8/11/11 5/10/10 6/12/12
f 2/13/13 7/14/14 3/15/15
f 3/15/15 7/14/14 8/16/16
f 9/17/17 10/18/18 12/19/19
f 12/19/19 10/18/18 11/20/20
f 11/21/21 10/22/22 26/23/23
f 26/23/23 10/22/22 13/24/24
f 26/23/23 13/24/24 25/25/25
f 25/25/25 13/24/24 14/26/26
f 25/25/25 14/26/26 24/27/27
f 24/27/27 14/26/26 15/28/28
f 24/27/27 15/28/28 23/29/29
f 23/29/29 15/28/28 16/30/30
f 23/29/29 16/30/30 22/31/31
f 22/31/31 16/30/30 17/32/32
f 22/31/31 17/32/32 21/33/33
f 21/33/33 17/32/32 18/34/34
f 21/33/33 18/34/34 20/35/35
f 20/35/35 18/34/34 19/36/36
f 19/37/36 27/38/37 20/39/35
f 20/39/35 27/38/37 28/40/38
f 28/41/38 27/42/37 42/43/39
f 42/43/39 27/42/37 29/44/40
f 42/43/39 29/44/40 41/45/41
f 41/45/41 29/44/40 30/46/42
f 41/45/41 30/46/42 40/47/43
f 40/47/43 30/46/42 31/48/44
f 40/47/43 31/48/44 39/49/45
f 39/49/45 31/48/44 32/50/46
f 39/49/45 32/50/46 38/51/47
f 38/51/47 32/50/46 33/52/48
f 38/51/47 33/52/48 37/53/49
f 37/53/49 33/52/48 34/54/50
f 37/53/49 34/54/50 36/55/51
f 36/55/51 34/54/50 35/56/52
f 56/57/53 43/58/54 55/59/55
f 55/59/55 43/58/54 44/60/56
f 55/59/55 44/60/56 54/61/57
f 54/61/57 44/60/56 45/62/58
f 54/61/57 45/62/58 53/63/59
f 53/63/59 45/62/58 46/64/60
f 53/63/59 46/64/60 52/65/61
f 52/65/61 46/64/60 47/66/62
f 52/65/61 47/66/62 51/67/63
f 51/67/63 47/66/62 48/68/64
f 51/67/63 48/68/64 50/69/65
f 50/69/65 48/68/64 49/70/66
f 50/69/65 49/70/66 12/71/67
f 12/71/67 49/70/66 9/72/68
f 57/73/69 43/74/54 58/75/70
f 58/75/70 43/74/54 56/76/53
f 72/77/71 59/78/72 71/79/73
f 71/79/73 59/78/72 60/80/74
f 71/79/73 60/80/74 70/81/75
f 70/81/75 60/80/74 61/82/76
f 70/81/75 61/82/76 69/83/77
f 69/83/77 61/82/76 62/84/78
f 69/83/77 62/84/78 68/85/79
f 68/85/79 62/84/78 63/86/80
f 68/85/79 63/86/80 67/87/81
f 67/87/81 63/86/80 64/88/82
f 67/87/81 64/88/82 66/89/83
f 66/89/83 64/88/82 65/90/84
f 66/89/83 65/90/84 58/91/70
f 58/91/70 65/90/84 57/92/69
f 73/93/85 74/94/86 76/95/87
f 76/95/87 74/94/86 75/96/88
f 74/97/89 77/98/90 75/99/91
f 75/99/91 77/98/90 78/100/92
f 77/101/93 79/102/94 78/103/95
f 78/103/95 79/102/94 80/104/96
f 79/105/97 73/106/98 80/107/99
f 80/107/99 73/106/98 76/108/100
f 81/109/101 82/110/102 84/111/103
f 84/111/103 82/110/102 83/112/104
f 82/113/105 85/114/106 83/115/107
f 83/115/107 85/114/106 86/116/108
f 85/117/109 87/118/110 86/119/111
f 86/119/111 87/118/110 88/120/112
f 87/121/113 81/122/114 88/123/115
f 88/123/115 81/122/114 84/124/116
f 7/125/117 81/126/118 5/127/119
f 5/127/119 81/126/118 87/128/120
f 5/127/119 87/128/120 43/129/121
f 43/129/121 87/128/120 9/130/122
f 43/129/121 9/130/122 49/131/123
f 2/132/124 27/133/125 7/125/117
f 7/125/117 27/133/125 79/134/126
f 7/125/117 79/134/126 77/135/127
f 1/136/128 97/137/129 2/132/124
f 2/132/124 97/137/129 98/138/130
f 2/132/124 98/138/130 99/139/131
f 5/127/119 57/140/132 1/136/128
f 1/136/128 57/140/132 59/141/133
f 1/136/128 59/141/133 89/142/134
f 89/142/134 90/143/135 1/136/128
f 1/136/128 90/143/135 91/144/136
f 1/136/128 91/144/136 92/145/137
f 92/145/137 93/146/138 1/136/128
f 1/136/128 93/146/138 94/147/139
f 1/136/128 94/147/139 95/148/140
f 95/148/140 96/149/141 1/136/128
f 1/136/128 96/149/141 97/137/129
f 99/139/131 100/150/142 2/132/124
f 2/132/124 100/150/142 101/151/143
f 2/132/124 101/151/143 102/152/144
f 102/152/144 103/153/145 2/132/124
f 2/132/124 103/153/145 104/154/146
f 2/132/124 104/154/146 105/155/147
f 105/155/147 106/156/148 2/132/124
f 2/132/124 106/156/148 35/157/149
f 2/132/124 35/157/149 27/133/125
f 27/133/125 35/157/149 34/158/150
f 27/133/125 34/158/150 33/159/151
f 33/159/151 32/160/152 27/133/125
f 27/133/125 32/160/152 31/161/153
f 27/133/125 31/161/153 30/162/154
f 30/162/154 29/163/155 27/133/125
f 27/133/125 19/164/156 79/134/126
f 79/134/126 19/164/156 73/165/157
f 73/165/157 19/164/156 10/166/158
f 73/165/157 10/166/158 74/167/159
f 74/167/159 10/166/158 82/168/160
f 74/167/159 82/168/160 77/135/127
f 77/135/127 82/168/160 81/126/118
f 77/135/127 81/126/118 7/125/117
f 18/169/161 17/170/162 19/164/156
f 19/164/156 17/170/162 16/171/163
f 19/164/156 16/171/163 15/172/164
f 15/172/164 14/173/165 19/164/156
f 19/164/156 14/173/165 13/174/166
f 19/164/156 13/174/166 10/166/158
f 10/166/158 9/130/122 82/168/160
f 82/168/160 9/130/122 85/175/167
f 85/175/167 9/130/122 87/128/120
f 49/131/123 48/176/168 43/129/121
f 43/129/121 48/176/168 47/177/169
f 43/129/121 47/177/169 46/178/170
f 46/178/170 45/179/171 43/129/121
f 43/129/121 45/179/171 44/180/172
f 43/129/121 57/140/132 5/127/119
f 65/181/173 64/182/174 57/140/132
f 57/140/132 64/182/174 63/183/175
f 57/140/132 63/183/175 62/184/176
f 62/184/176 61/185/177 57/140/132
f 57/140/132 61/185/177 60/186/178
f 57/140/132 60/186/178 59/141/133
f 107/187/179 36/188/51 106/189/180
f 106/189/180 36/188/51 35/190/52
f 89/191/181 59/192/72 108/193/182
f 108/193/182 59/192/72 72/194/71
f 6/195/183 84/196/184 8/197/185
f 8/197/185 84/196/184 78/198/186
f 8/197/185 78/198/186 80/199/187
f 4/200/188 58/201/189 6/195/183
f 6/195/183 58/201/189 56/202/190
f 6/195/183 56/202/190 88/203/191
f 88/203/191 56/202/190 12/204/192
f 88/203/191 12/204/192 86/205/193
f 86/205/193 12/204/192 83/206/194
f 83/206/194 12/204/192 11/207/195
f 83/206/194 11/207/195 75/208/196
f 75/208/196 11/207/195 76/209/197
f 76/209/197 11/207/195 20/210/198
f 76/209/197 20/210/198 80/199/187
f 80/199/187 20/210/198 28/211/199
f 80/199/187 28/211/199 8/197/185
f 8/197/185 28/211/199 3/212/200
f 3/212/200 28/211/199 36/213/201
f 3/212/200 36/213/201 107/214/202
f 3/212/200 117/215/203 4/200/188
f 4/200/188 117/215/203 118/216/204
f 4/200/188 118/216/204 119/217/205
f 88/203/191 84/196/184 6/195/183
f 84/196/184 83/206/194 78/198/186
f 78/198/186 83/206/194 75/208/196
f 107/214/202 109/218/206 3/212/200
f 3/212/200 109/218/206 110/219/207
f 3/212/200 110/219/207 111/220/208
f 111/220/208 112/221/209 3/212/200
f 3/212/200 112/221/209 113/222/210
f 3/212/200 113/222/210 114/223/211
f 114/223/211 115/224/212 3/212/200
f 3/212/200 115/224/212 116/225/213
f 3/212/200 116/225/213 117/215/203
f 119/217/205 120/226/214 4/200/188
f 4/200/188 120/226/214 121/227/215
f 4/200/188 121/227/215 122/228/216
f 122/228/216 123/229/217 4/200/188
f 4/200/188 123/229/217 124/230/218
f 4/200/188 124/230/218 108/231/219
f 108/231/219 72/232/220 4/200/188
f 4/200/188 72/232/220 58/201/189
f 72/232/220 71/233/221 58/201/189
f 58/201/189 71/233/221 70/234/222
f 58/201/189 70/234/222 69/235/223
f 69/235/223 68/236/224 58/201/189
f 58/201/189 68/236/224 67/237/225
f 58/201/189 67/237/225 66/238/226
f 55/239/227 54/240/228 56/202/190
f 56/202/190 54/240/228 53/241/229
f 56/202/190 53/241/229 52/242/230
f 52/242/230 51/243/231 56/202/190
f 56/202/190 51/243/231 50/244/232
f 56/202/190 50/244/232 12/204/192
f 11/207/195 26/245/233 20/210/198
f 20/210/198 26/245/233 25/246/234
f 20/210/198 25/246/234 24/247/235
f 24/247/235 23/248/236 20/210/198
f 20/210/198 23/248/236 22/249/237
f 20/210/198 22/249/237 21/250/238
f 42/251/239 41/252/240 28/211/199
f 28/211/199 41/252/240 40/253/241
f 28/211/199 40/253/241 39/254/242
f 39/254/242 38/255/243 28/211/199
f 28/211/199 38/255/243 37/256/244
f 28/211/199 37/256/244 36/213/201
f 107/257/245 106/258/246 109/259/247
f 109/259/247 106/258/246 105/260/248
f 109/259/247 105/260/248 110/261/249
f 110/261/249 105/260/248 104/262/250
f 110/261/249 104/262/250 111/263/251
f 111/263/251 104/262/250 103/264/252
f 111/263/251 103/264/252 112/265/253
f 112/265/253 103/264/252 102/266/254
f 112/265/253 102/266/254 113/267/255
f 113/267/255 102/266/254 101/268/256
f 113/267/255 101/268/256 114/269/257
f 114/269/257 101/268/256 100/270/258
f 114/269/257 100/270/258 115/271/259
f 115/271/259 100/270/258 99/272/260
f 115/271/259 99/272/260 116/273/261
f 116/273/261 99/272/260 98/274/262
f 116/273/261 98/274/262 117/275/263
f 117/275/263 98/274/262 97/276/264
f 117/275/263 97/276/264 118/277/265
f 118/277/265 97/276/264 96/278/266
f 118/277/265 96/278/266 119/279/267
f 119/279/267 96/278/266 95/280/268
f 119/279/267 95/280/268 120/281/269
f 120/281/269 95/280/268 94/282/270
f 120/281/269 94/282/270 121/283/271
f 121/283/271 94/282/270 93/284/272
f 121/283/271 93/284/272 122/285/273
f 122/285/273 93/284/272 92/286/274
f 122/285/273 92/286/274 123/287/275
f 123/287/275 92/286/274 91/288/276
f 123/287/275 91/288/276 124/289/277
f 124/289/277 91/288/276 90/290/278
f 124/289/277 90/290/278 108/291/279
f 108/291/279 90/290/278 89/292/280
# 124 vertices
# 292 texture params
# 280 normals
# 256 facets

# 1 groups
